<?xml version="1.0" standalone="no"?>
<svg xmlns="http://www.w3.org/2000/svg" viewBox="0 0 358.50188679245286 151.50188679245284" width="358.50188679245286" height="151.50188679245284"><rect fill="#3b3b3b" width="358.50188679245286" height="151.50188679245284" x="0" y="0"></rect><g fill="white" color="white" transform="translate(12 12) scale(1.3281447)"><svg width="96.0" height="96.0" x="0.0" y="0.0" viewBox="0 0 96 96"><g fill="none" stroke="currentColor" font-family="Times New Roman" font-size="16" transform="scale(1 -1)"><g transform="translate(0 -96)"><g><path d="M 23.675,9.495 L 23.542,13.539 L 21.888,15.395 L 9.593,15.395 C 8.765,15.395 8.093,16.067 8.093,16.895 C 8.093,17.722 8.765,18.395 9.593,18.395 L 19.212,18.395 L 17.473,20.345 L 17.426,20.401 C 13.96,24.689 13.933,28.266 15.455,32.229 L 20.038,43.961 C 20.516,45.092 21.566,47.018 23.107,48.09 L 30.89,53.405 C 30.309,53.938 29.762,54.463 29.261,54.972 C 27.709,56.547 26.144,58.375 25.929,59.929 C 25.912,60.052 25.902,60.18 25.902,60.313 C 25.902,60.434 25.907,60.554 25.919,60.671 C 25.879,60.923 25.903,61.19 26.005,61.451 C 32.919,79.121 38.1,88.09 47.756,89.36 L 48.147,89.36 C 57.929,88.074 63.073,78.897 69.898,61.451 C 69.999,61.191 70.023,60.925 69.984,60.674 C 69.996,60.556 70.002,60.435 70.002,60.313 C 70.002,60.181 69.992,60.054 69.975,59.932 C 69.763,58.393 68.163,56.512 66.651,54.975 C 66.148,54.464 65.6,53.937 65.018,53.402 L 72.797,48.089 C 74.337,47.018 75.388,45.093 75.866,43.96 L 80.448,32.229 C 81.974,28.255 81.942,24.687 78.477,20.401 L 78.43,20.345 L 76.69,18.395 L 85.886,18.395 C 86.713,18.395 87.386,17.722 87.386,16.895 C 87.386,16.067 86.713,15.395 85.886,15.395 L 74.015,15.395 L 72.359,13.538 L 72.227,9.495 C 72.2,8.687 71.536,8.045 70.728,8.045 L 25.175,8.045 C 24.366,8.045 23.702,8.687 23.675,9.495 Z M 69.276,11.045 L 69.33,12.708 L 26.571,12.708 L 26.626,11.045 L 69.276,11.045 Z M 69.428,15.708 L 70.31,42.629 C 70.31,43.162 69.854,43.619 69.295,43.619 L 26.608,43.619 C 26.048,43.619 25.593,43.162 25.593,42.629 L 26.473,15.708 L 69.428,15.708 Z M 44.065,19.307 L 43.807,22.2 L 41.84,22.2 C 41.095,22.2 40.489,22.805 40.489,23.549 L 40.489,24.03 C 40.489,24.569 40.806,25.034 41.262,25.249 C 39.983,26.741 39.21,28.679 39.21,30.794 C 39.21,35.5 43.03,39.319 47.739,39.319 C 52.447,39.319 56.268,35.5 56.268,30.794 C 56.268,28.679 55.495,26.741 54.216,25.249 C 54.671,25.034 54.987,24.569 54.987,24.03 L 54.987,23.549 C 54.987,22.805 54.382,22.2 53.638,22.2 L 51.672,22.2 L 51.413,19.307 L 44.065,19.307 Z M 47.095,23.96 L 47.394,25.243 C 47.463,25.54 47.277,25.837 46.982,25.905 C 46.685,25.974 46.389,25.789 46.321,25.493 L 46.022,24.209 C 45.953,23.913 46.139,23.616 46.434,23.548 C 46.732,23.479 47.027,23.663 47.095,23.96 Z M 49.687,24.209 L 49.388,25.493 C 49.319,25.79 49.023,25.974 48.726,25.905 C 48.429,25.837 48.244,25.539 48.314,25.243 L 48.613,23.96 C 48.682,23.663 48.98,23.479 49.275,23.548 C 49.572,23.616 49.756,23.914 49.687,24.209 Z M 46.794,29.461 C 46.794,29.588 46.786,29.714 46.768,29.836 C 45.064,29.932 43.461,30.278 42.043,30.82 C 41.796,30.425 41.654,29.96 41.654,29.461 C 41.654,28.042 42.804,26.89 44.226,26.89 C 45.642,26.89 46.794,28.042 46.794,29.461 Z M 53.825,29.461 C 53.825,29.96 53.681,30.425 53.436,30.82 C 52.017,30.278 50.416,29.932 48.71,29.836 C 48.692,29.714 48.684,29.588 48.684,29.461 C 48.684,28.042 49.835,26.89 51.254,26.89 C 52.675,26.89 53.825,28.042 53.825,29.461 Z M 48.089,50.024 L 49.939,50.437 C 51.602,50.891 53.172,51.557 54.585,52.641 L 55.323,53.268 C 55.385,53.322 55.432,53.386 55.464,53.456 L 56.404,55.565 C 57.023,57.067 57.562,58.612 58.029,60.32 L 58.591,62.649 C 58.646,62.879 58.527,63.116 58.3,63.229 L 57.501,63.621 L 38.403,63.621 L 37.603,63.229 C 37.376,63.116 37.257,62.879 37.312,62.649 L 37.874,60.32 C 38.341,58.612 38.88,57.067 39.499,55.565 L 40.439,53.456 C 40.47,53.386 40.519,53.322 40.58,53.268 L 41.303,52.654 C 42.732,51.557 44.301,50.891 45.945,50.442 L 47.814,50.024 L 48.089,50.024 Z M 48.294,57.426 L 48.115,62.45 L 50.409,57.426 L 48.294,57.426 Z M 63.571,68.886 L 48.171,84.272 C 47.879,84.564 47.878,85.04 48.171,85.333 C 48.463,85.625 48.939,85.626 49.232,85.333 L 61.699,72.878 C 57.609,81.102 53.965,84.969 49.149,86.128 L 47.951,86.348 L 46.765,86.13 C 40.738,84.683 36.509,78.97 30.883,65.526 C 31.562,65.81 32.268,66.061 32.976,66.283 C 36.877,67.502 42.172,68.234 47.952,68.234 C 48.905,68.234 49.846,68.214 50.77,68.175 L 48.171,70.772 C 47.879,71.064 47.878,71.54 48.171,71.833 C 48.463,72.125 48.939,72.126 49.232,71.833 L 53.028,68.04 C 53.933,67.97 54.817,67.881 55.675,67.775 L 48.171,75.272 C 47.879,75.564 47.878,76.04 48.171,76.333 C 48.463,76.625 48.939,76.626 49.232,76.333 L 58.077,67.497 C 58.104,67.469 58.129,67.44 58.151,67.409 C 59.218,67.224 60.232,67.011 61.184,66.771 L 48.171,79.772 C 47.879,80.064 47.878,80.54 48.171,80.833 C 48.463,81.125 48.939,81.126 49.232,80.833 L 64.125,65.955 C 64.16,65.919 64.191,65.881 64.217,65.841 C 64.488,65.741 64.755,65.635 65.019,65.524 C 64.526,66.703 64.044,67.822 63.571,68.886 Z" stroke-linecap="round" stroke="none" fill="currentColor" stroke-linejoin="round" stroke-width="3" marker-start="none" marker-end="none" stroke-miterlimit="79.8403193612775"></path></g></g></g></svg></g><path fill="white" fill-rule="nonzero" d="M12.88 4.16L12.88 4.16L9.60 4Q9.44 7.88 9.44 15.14Q9.44 22.40 9.64 27.28L9.64 27.28L12.88 27.12Q13.96 27.12 14.62 27.62Q15.28 28.12 15.28 28.98Q15.28 29.84 14.62 30.34Q13.96 30.84 12.88 30.84L12.88 30.84L7.64 30.60L2.40 30.84Q1.32 30.84 0.66 30.34Q0 29.84 0 28.98Q0 28.12 0.66 27.62Q1.32 27.12 2.40 27.12L2.40 27.12L5.64 27.32Q5.84 22.44 5.84 15.16Q5.84 7.88 5.68 4L5.68 4L2.40 4.16Q1.32 4.16 0.66 3.64Q0 3.12 0 2.24Q0 1.36 0.66 0.86Q1.32 0.36 2.40 0.36L2.40 0.36L7.64 0.60L12.88 0.36Q13.96 0.36 14.62 0.86Q15.28 1.36 15.28 2.24Q15.28 3.12 14.62 3.64Q13.96 4.16 12.88 4.16ZM43.56 26.36L43.56 26.36Q43.56 27.80 40.58 29.50Q37.60 31.20 33.56 31.20L33.56 31.20Q27.84 31.20 24.04 26.64Q20.24 22.08 20.24 15.56Q20.24 9.04 24.06 4.52Q27.88 0 33.64 0L33.64 0Q37.16 0 39.94 1.32Q42.72 2.64 42.72 4.28L42.72 4.28Q42.72 5.08 42.24 5.56Q41.76 6.04 40.94 6.04Q40.12 6.04 38.76 5.12L38.76 5.12Q36.20 3.48 33.64 3.48L33.64 3.48Q29.48 3.48 26.78 7.06Q24.08 10.64 24.08 15.54Q24.08 20.44 26.78 24.08Q29.48 27.72 33.40 27.72Q37.32 27.72 40.56 25.76L40.56 25.76Q41.88 25.04 42.34 25.04Q42.80 25.04 43.18 25.42Q43.56 25.80 43.56 26.36ZM49.76 0.36L49.76 0.36L57.72 0.60L65.44 0.36Q66.52 0.36 67.18 0.86Q67.84 1.36 67.84 2.24Q67.84 3.12 67.18 3.62Q66.52 4.12 65.44 4.12L65.44 4.12L59.68 3.88Q59.52 7.76 59.52 15.72L59.52 15.72L59.76 28.68Q59.76 29.72 59.20 30.36Q58.64 31 57.74 31Q56.84 31 56.26 30.36Q55.68 29.72 55.68 28.68L55.68 28.68L55.92 15.72Q55.92 8.76 55.72 3.88L55.72 3.88L49.76 4.12Q48.68 4.12 48.02 3.62Q47.36 3.12 47.36 2.24Q47.36 1.36 48.02 0.86Q48.68 0.36 49.76 0.36Z" transform="translate(154.502 12) scale(2.831)"></path><path fill="white" fill-rule="nonzero" d="M23.32 26.36L23.32 26.36Q23.32 27.80 20.34 29.50Q17.36 31.20 13.32 31.20L13.32 31.20Q7.60 31.20 3.80 26.64Q0 22.08 0 15.56Q0 9.04 3.82 4.52Q7.64 0 13.40 0L13.40 0Q16.92 0 19.70 1.32Q22.48 2.64 22.48 4.28L22.48 4.28Q22.48 5.08 22 5.56Q21.52 6.04 20.70 6.04Q19.88 6.04 18.52 5.12L18.52 5.12Q15.96 3.48 13.40 3.48L13.40 3.48Q9.24 3.48 6.54 7.06Q3.84 10.64 3.84 15.54Q3.84 20.44 6.54 24.08Q9.24 27.72 13.16 27.72Q17.08 27.72 20.32 25.76L20.32 25.76Q21.64 25.04 22.10 25.04Q22.56 25.04 22.94 25.42Q23.32 25.80 23.32 26.36ZM46 4.12L46 4.12L39.64 3.88Q36.56 3.88 34.16 4.08L34.16 4.08L34.16 12.96Q34.92 13 36.80 13L36.80 13L43.96 12.80Q45.04 12.80 45.68 13.30Q46.32 13.80 46.32 14.64L46.32 14.64Q46.32 16.40 43.96 16.40L43.96 16.40L36.80 16.24Q35.08 16.24 34.16 16.28L34.16 16.28L34.16 19.44Q34.16 25.28 34.32 27.12L34.32 27.12Q36.72 27.32 39.76 27.32L39.76 27.32Q39.76 27.32 46.12 27.08L46.12 27.08Q47.20 27.08 47.86 27.58Q48.52 28.08 48.52 28.96Q48.52 29.84 47.86 30.34Q47.20 30.84 46.12 30.84L46.12 30.84L39.76 30.60L32.52 30.80Q30.36 30.80 30.36 28.96L30.36 28.96Q30.36 27.56 30.46 24.38Q30.56 21.20 30.56 16.40L30.56 16.40Q27.88 16.40 27.88 14.64L27.88 14.64Q27.88 13.72 28.64 13.26Q29.40 12.80 30.56 12.80L30.56 12.80Q30.48 5.32 30.28 3.80L30.28 3.80Q29.80 3.04 29.80 2.20L29.80 2.20Q29.80 0.40 32.28 0.40L32.28 0.40L39.64 0.60L46 0.36Q47.08 0.36 47.74 0.86Q48.40 1.36 48.40 2.24Q48.40 3.12 47.74 3.62Q47.08 4.12 46 4.12ZM76.04 15.72L76.04 15.72L76.16 28.12Q76.16 31 74.04 31L74.04 31Q72.72 31 72.04 29.76L72.04 29.76L59.36 7.92Q59.36 17.24 59.46 22.80Q59.56 28.36 59.56 29.02Q59.56 29.68 58.96 30.34Q58.36 31 57.54 31Q56.72 31 56.14 30.34Q55.56 29.68 55.56 28.68L55.56 28.68L55.72 15.72Q55.72 11.60 55.62 7.36Q55.52 3.12 55.52 3.04L55.52 3.04Q55.52 0.20 57.56 0.20L57.56 0.20Q59.04 0.20 59.76 1.44L59.76 1.44Q71.40 21.44 72.44 23.04L72.44 23.04Q72.44 11.72 72.32 7.44Q72.20 3.16 72.20 3.04L72.20 3.04Q72.20 0.20 74.24 0.20Q76.28 0.20 76.28 3.04L76.28 3.04Q76.28 3.36 76.20 5.16L76.20 5.16Q76.04 10.48 76.04 15.72ZM84.80 0.36L84.80 0.36L92.76 0.60L100.48 0.36Q101.56 0.36 102.22 0.86Q102.88 1.36 102.88 2.24Q102.88 3.12 102.22 3.62Q101.56 4.12 100.48 4.12L100.48 4.12L94.72 3.88Q94.56 7.76 94.56 15.72L94.56 15.72L94.80 28.68Q94.80 29.72 94.24 30.36Q93.68 31 92.78 31Q91.88 31 91.30 30.36Q90.72 29.72 90.72 28.68L90.72 28.68L90.96 15.72Q90.96 8.76 90.76 3.88L90.76 3.88L84.80 4.12Q83.72 4.12 83.06 3.62Q82.40 3.12 82.40 2.24Q82.40 1.36 83.06 0.86Q83.72 0.36 84.80 0.36ZM124.60 9.28L124.60 9.28Q124.60 6.64 122.60 5.04Q120.60 3.44 116.80 3.44L116.80 3.44Q114.92 3.44 112.92 4.16L112.92 4.16Q112.80 7.76 112.80 11.02Q112.80 14.28 112.84 14.80L112.84 14.80Q114.76 14.44 116.44 14.44Q118.12 14.44 120.24 14.80L120.24 14.80Q121.68 14.40 123.14 12.78Q124.60 11.16 124.60 9.28ZM129.60 27.56L129.60 27.56L130.24 27.48Q130.60 27.48 130.60 28.44Q130.60 29.40 129.76 30.20Q128.92 31 127.88 31L127.88 31Q126.08 31 124.44 28.68L124.44 28.68Q122.32 25.80 119.04 18.56L119.04 18.56Q117.24 18.80 114.96 18.80L114.96 18.80L112.88 18.64Q112.88 21.44 113 24.30Q113.12 27.16 113.12 28.36L113.12 28.36Q113.12 31.20 111.08 31.20Q109.04 31.20 109.04 28.36L109.04 28.36Q109.04 26.76 109.18 22.72Q109.32 18.68 109.32 14.82Q109.32 10.96 109.08 5.52L109.08 5.52Q107.32 5.16 107.32 3.72L107.32 3.72Q107.32 2 110.64 1Q113.96 0 116.56 0L116.56 0Q122.40 0 125.42 2.62Q128.44 5.24 128.44 9.04L128.44 9.04Q128.44 11.48 126.80 13.82Q125.16 16.16 122.52 17.40L122.52 17.40Q124.36 21.64 125.86 24.04Q127.36 26.44 128.12 27Q128.88 27.56 129.60 27.56ZM157.48 20.64Q157.40 25.08 154.64 28.14Q151.88 31.20 146.74 31.20Q141.60 31.20 138.84 28.12Q136.08 25.04 136 20.64L136 20.64Q135.96 18.56 135.96 15.48Q135.96 12.40 135.90 9.58Q135.84 6.76 135.78 5.06Q135.72 3.36 135.72 3.04L135.72 3.04Q135.72 0.20 137.76 0.20Q139.80 0.20 139.80 3.04L139.80 3.04Q139.80 3.36 139.72 5.56L139.72 5.56Q139.56 12.24 139.56 15.98Q139.56 19.72 139.86 21.40Q140.16 23.08 140.92 24.60L140.92 24.60Q142.40 27.72 146.72 27.72L146.72 27.72Q152.84 27.72 153.72 20.64L153.72 20.64Q153.92 19.24 153.92 16.86Q153.92 14.48 153.86 11.14Q153.80 7.80 153.74 5.58Q153.68 3.36 153.68 3.04L153.68 3.04Q153.68 0.20 155.72 0.20Q157.76 0.20 157.76 3.04L157.76 3.04Q157.76 3.36 157.72 5.08L157.72 5.08Q157.52 10.16 157.52 14.36Q157.52 18.56 157.48 20.64L157.48 20.64ZM170.16 28.68L170.16 28.68Q170.16 29.72 169.60 30.36Q169.04 31 168.14 31Q167.24 31 166.68 30.36Q166.12 29.72 166.12 29.04Q166.12 28.36 166.16 26.44L166.16 26.44Q166.32 21.96 166.32 16.78Q166.32 11.60 166.22 7.22Q166.12 2.84 166.12 2.72L166.12 2.72Q166.12 1.56 166.70 0.88Q167.28 0.20 168.12 0.20L168.12 0.20Q169.40 0.20 170.12 1.76L170.12 1.76L179.04 20.92Q182.72 13.16 187.16 3.24L187.16 3.24Q188.04 1.28 188.52 0.74Q189 0.20 189.90 0.20Q190.80 0.20 191.38 0.86Q191.96 1.52 191.96 2.72L191.96 2.72Q191.76 3.76 191.76 11.80Q191.76 19.84 191.88 24.20Q192 28.56 192 28.68L192 28.68Q192 29.72 191.44 30.36Q190.88 31 189.98 31Q189.08 31 188.52 30.36Q187.96 29.72 187.96 29.02Q187.96 28.32 188 26.44L188 26.44Q188.24 19.44 188.24 15.72L188.24 15.72L188.24 9.60L181 24.84Q180.32 26.24 179.16 26.24Q178 26.24 177.28 24.76L177.28 24.76L169.92 9.60L169.92 15.72Q169.92 19.84 170.04 24.20Q170.16 28.56 170.16 28.68Z" transform="translate(154.502 108.302) scale(1)"></path></svg>