<?xml version="1.0" encoding="utf-8"?>
<!-- Generator: Adobe Illustrator 23.0.3, SVG Export Plug-In . SVG Version: 6.00 Build 0)  -->
<svg version="1.1" id="Layer_1" xmlns="http://www.w3.org/2000/svg" xmlns:xlink="http://www.w3.org/1999/xlink" x="0px" y="0px"
	 viewBox="0 0 100 100" style="enable-background:new 0 0 100 100;" xml:space="preserve">
<g>
	<path d="M5.75,77.63c0.9-2.61,2.98-2.97,5.55-2.67c-1.35-2.03-1.02-4.13-1.02-6.17c-0.01-13.33-0.01-26.67-0.01-40
		c0-4.14,2.42-6.56,6.54-6.56c12.06,0,24.11,0,36.17,0c0.37,0,0.75,0,1.24,0c0-1.55,0-3.05,0-4.55c0-2.73,0.07-2.8,2.76-2.8
		c5.58,0,11.15,0,16.73,0c0.32,0,0.65-0.03,0.95,0.05c0.66,0.18,1.05,0.62,1,1.34c-0.05,0.71-0.47,1.1-1.15,1.21
		c-0.26,0.04-0.52,0.02-0.78,0.02c-5.29,0-10.57,0-15.86,0c-0.31,0-0.63,0-0.98,0c0,5.44,0,10.8,0,16.2c11.83,0,23.61,0,35.45,0
		c0-5.37,0-10.73,0-16.2c-0.3,0-0.61,0-0.92,0c-3.51,0-7.03,0-10.54,0c-1.09,0-1.71-0.48-1.7-1.3c0-0.82,0.63-1.31,1.71-1.31
		c4.1,0,8.19,0.01,12.29-0.01c0.8-0.01,1.42,0.19,1.84,0.88c0,6.57,0,13.13,0,19.7c-0.38,0.74-1.01,0.96-1.81,0.92
		c-0.89-0.04-1.78-0.01-2.72-0.01c0,0.48,0,0.83,0,1.17c0,10.45,0.01,20.9-0.01,31.35c0,2.01,0.3,4.07-1.03,6.07
		c2.57-0.28,4.66,0.06,5.55,2.68c0,0.58,0,1.16,0,1.74c-0.13,0.47-0.24,0.95-0.4,1.41c-1.07,3.22-3.97,5.21-7.65,5.21
		c-24.39,0-48.79,0-73.18,0c-0.23,0-0.46,0-0.7-0.01c-3.32-0.15-6.11-2.35-7.03-5.55c-0.09-0.3-0.2-0.59-0.3-0.88
		C5.75,78.91,5.75,78.27,5.75,77.63z M27.22,31.09c0,1.02,0,1.94,0,2.87c0,5.61,0,11.21,0,16.82c0,0.95-0.51,1.54-1.28,1.55
		c-0.77,0.01-1.29-0.59-1.33-1.52c-0.01-0.23,0-0.46,0-0.7c0-5.98,0-11.97,0-17.95c0-0.34,0-0.68,0-1.1c-1.64,0-3.17,0-4.7,0
		c-1.36,0-1.45,0.09-1.45,1.42c0,11.18,0,22.37,0,33.55c0,2.88-0.31,2.68,2.66,2.67c1.15,0,2.29,0,3.49,0c0-3.69,0-7.23,0-10.77
		c0-0.43-0.01-0.88,0.09-1.3c0.15-0.64,0.64-0.99,1.29-0.95c0.68,0.04,1.13,0.44,1.21,1.15c0.03,0.26,0.02,0.52,0.02,0.78
		c0,3.37,0,6.74,0,10.11c0,0.31,0.03,0.61,0.04,0.98c0.38,0,0.67,0,0.96,0c17.55,0,35.09,0,52.64,0c1.29,0,1.43-0.15,1.43-1.47
		c0-9.96,0-19.93,0-29.89c0-0.31-0.03-0.62-0.04-1c-0.42,0-0.76,0-1.11,0c-8.37,0-16.73,0-25.1,0c-1.42,0-1.82-0.4-1.82-1.8
		c0-1.15,0-2.3,0-3.46C45.18,31.09,36.26,31.09,27.22,31.09z M84.91,36.41c0,0.45,0,0.8,0,1.15c0,9.91-0.05,19.81,0.03,29.72
		c0.02,2.75-1.82,4.1-4.07,4.09c-20.33-0.05-40.67-0.03-61-0.03c-2.71,0-4.03-1.3-4.03-3.98c0-11.65,0-23.3,0-34.95
		c0-2.67,1.28-3.96,3.94-3.96c11.13,0,22.25,0,33.38,0c0.34,0,0.67,0,0.98,0c0-1.27,0-2.42,0-3.61c-0.3,0-0.53,0-0.76,0
		c-12.29,0-24.57,0-36.86,0c-2.27,0-3.63,1.36-3.63,3.63c0,14.23,0,28.47,0,42.7c0,2.41,1.28,3.71,3.71,3.71
		c22.51,0.01,45.03,0.01,67.54,0c2.46,0,3.73-1.3,3.73-3.79c0-11.24,0-22.48,0-33.73c0-0.31,0-0.62,0-0.97
		C86.85,36.41,85.93,36.41,84.91,36.41z M39.83,77.5c-0.34,0-0.66,0-0.97,0c-9.64,0-19.28,0-28.92,0c-0.2,0-0.41-0.01-0.61,0.01
		c-0.66,0.06-1.09,0.43-0.93,1.08c0.22,0.91,0.44,1.89,0.94,2.66c0.98,1.53,2.53,2.13,4.33,2.13c24.48-0.01,48.96,0,73.44,0
		c0.12,0,0.23,0,0.35,0c2.4-0.08,4.31-1.68,4.82-4.03c0.31-1.46,0-1.84-1.49-1.84c-9.64,0-19.28,0-28.92,0c-0.31,0-0.62,0-0.91,0
		c-0.47,2.89-1.73,4.23-4.05,4.24c-4.36,0.04-8.71,0.03-13.07,0c-1.94-0.01-3.45-1.26-3.85-3.05C39.9,78.33,39.89,77.95,39.83,77.5z
		 M42.59,77.55c-0.08,1.16,0.36,1.6,1.63,1.6c3.72,0.01,7.43,0,11.15,0c0.55,0,1.11,0.03,1.65-0.03c0.89-0.1,1.26-0.64,1.12-1.58
		C52.95,77.55,47.77,77.55,42.59,77.55z"/>
	<path d="M75.26,19.52c1.42,0,2.55,0.43,3.55,1.17c0.67,0.5,0.81,1.21,0.4,1.83c-0.4,0.61-1.15,0.77-1.84,0.32
		c-0.78-0.51-1.6-0.87-2.53-0.62c-0.3,0.08-0.61,0.42-0.73,0.72c-0.05,0.13,0.34,0.54,0.6,0.66c0.75,0.36,1.55,0.64,2.33,0.97
		c1.99,0.83,2.92,2.24,2.66,3.99c-0.25,1.66-1.72,2.99-3.66,3.17c-1.79,0.16-3.38-0.4-4.66-1.69c-0.57-0.57-0.61-1.35-0.15-1.87
		c0.49-0.56,1.3-0.59,1.93-0.01c0.75,0.68,1.61,1.12,2.6,0.94c0.49-0.09,1.11-0.5,1.29-0.93c0.28-0.64-0.42-0.92-0.92-1.14
		c-0.79-0.35-1.61-0.65-2.41-0.99c-1.73-0.73-2.47-1.93-2.24-3.57c0.2-1.45,1.48-2.65,3.08-2.89
		C74.84,19.54,75.13,19.53,75.26,19.52z"/>
	<path d="M85.67,19.52c1.4-0.01,2.53,0.4,3.54,1.14c0.71,0.52,0.86,1.26,0.42,1.89c-0.42,0.59-1.14,0.72-1.85,0.27
		c-0.73-0.47-1.5-0.83-2.37-0.62c-0.33,0.08-0.6,0.45-0.89,0.68c0.22,0.25,0.4,0.6,0.68,0.74c0.75,0.37,1.55,0.64,2.33,0.97
		c1.97,0.84,2.88,2.25,2.6,4.03c-0.25,1.63-1.8,2.97-3.73,3.12c-1.76,0.13-3.32-0.42-4.59-1.69c-0.6-0.61-0.63-1.41-0.1-1.94
		c0.5-0.5,1.27-0.51,1.87,0.05c0.8,0.73,1.72,1.17,2.77,0.92c0.45-0.11,0.79-0.64,1.18-0.97c-0.3-0.35-0.54-0.82-0.91-1.02
		c-0.79-0.42-1.66-0.69-2.48-1.04c-1.73-0.74-2.46-1.92-2.22-3.58c0.21-1.48,1.53-2.67,3.19-2.88
		C85.34,19.54,85.57,19.53,85.67,19.52z"/>
	<path d="M59.04,25.17c0.07-1.96,1.12-3.81,3.24-4.93c2.05-1.09,4.13-0.99,6.13,0.21c0.76,0.46,0.95,1.2,0.54,1.85
		c-0.38,0.62-1.07,0.77-1.83,0.4c-0.1-0.05-0.2-0.12-0.3-0.17c-1.35-0.64-2.65-0.59-3.84,0.35c-1.17,0.91-1.56,2.17-1.22,3.58
		c0.35,1.46,1.34,2.42,2.82,2.59c0.71,0.08,1.48-0.28,2.2-0.49c0.23-0.07,0.4-0.33,0.62-0.47c0.6-0.4,1.2-0.42,1.74,0.12
		c0.49,0.5,0.5,1.22-0.02,1.81c-1.11,1.25-2.55,1.8-4.2,1.74C61.62,31.63,59.04,28.91,59.04,25.17z"/>
	<path d="M50.72,48.07c-4.9,0-9.81,0-14.71,0c-0.35,0-0.7,0.01-1.04-0.05c-0.66-0.12-1-0.56-1.01-1.22
		c-0.01-0.66,0.32-1.11,0.97-1.26c0.28-0.07,0.58-0.07,0.86-0.07c9.98,0,19.97,0,29.95,0c0.26,0,0.53,0.01,0.78,0.06
		c0.7,0.15,1.05,0.63,1.02,1.32c-0.03,0.65-0.39,1.09-1.06,1.19c-0.31,0.05-0.64,0.04-0.95,0.04
		C60.58,48.07,55.65,48.07,50.72,48.07z"/>
	<path d="M45.57,42.6c-3.36,0-6.73-0.01-10.09,0c-0.75,0-1.32-0.23-1.5-1.02c-0.19-0.8,0.33-1.49,1.19-1.58
		c0.43-0.05,0.87-0.02,1.3-0.02c6.26,0,12.53,0,18.79,0c0.29,0,0.58-0.02,0.87,0.02c0.74,0.1,1.23,0.67,1.2,1.36
		c-0.03,0.69-0.56,1.21-1.32,1.22c-1.48,0.02-2.96,0.01-4.44,0.01C49.57,42.6,47.57,42.6,45.57,42.6z"/>
	<path d="M60.16,64.44c-1.94,0-3.88,0.01-5.83,0c-1.03,0-1.62-0.49-1.62-1.28c0-0.79,0.6-1.32,1.61-1.32
		c3.86-0.01,7.71-0.01,11.57,0c1.08,0,1.68,0.52,1.66,1.35c-0.02,0.8-0.59,1.25-1.64,1.25C63.98,64.44,62.07,64.44,60.16,64.44z"/>
	<path d="M41.06,50.94c1.86,0,3.72-0.01,5.58,0c0.98,0.01,1.52,0.47,1.53,1.28c0.01,0.79-0.56,1.32-1.5,1.33
		c-3.75,0.01-7.49,0.01-11.24,0c-0.95,0-1.5-0.54-1.48-1.34c0.02-0.81,0.55-1.25,1.54-1.26C37.35,50.93,39.21,50.94,41.06,50.94z"/>
	<path d="M53.94,53.55c-0.64,0-1.27,0.02-1.91-0.01c-0.86-0.04-1.43-0.59-1.41-1.33c0.01-0.75,0.57-1.26,1.46-1.27
		c1.27-0.02,2.54-0.02,3.82,0c0.88,0.01,1.44,0.52,1.45,1.27c0.01,0.75-0.54,1.3-1.41,1.34C55.27,53.57,54.6,53.55,53.94,53.55z"/>
	<path d="M64.24,50.94c0.66,0,1.33-0.02,1.99,0.01c0.78,0.03,1.28,0.52,1.31,1.23c0.03,0.69-0.45,1.32-1.19,1.35
		c-1.44,0.05-2.89,0.06-4.33,0c-0.75-0.03-1.22-0.66-1.18-1.36c0.04-0.69,0.55-1.18,1.32-1.21C62.85,50.92,63.54,50.94,64.24,50.94z
		"/>
	<path d="M64.1,42.6c-0.66,0-1.33,0.02-1.99-0.01c-0.74-0.03-1.17-0.45-1.26-1.18c-0.08-0.69,0.4-1.35,1.14-1.38
		c1.47-0.06,2.95-0.06,4.42,0c0.73,0.03,1.22,0.7,1.13,1.39c-0.09,0.73-0.52,1.15-1.26,1.18C65.55,42.62,64.82,42.6,64.1,42.6z"/>
	<path d="M64.13,58.98c-0.66,0-1.33,0.02-1.99-0.01c-0.76-0.04-1.27-0.55-1.3-1.24c-0.03-0.73,0.49-1.32,1.29-1.35
		c1.39-0.04,2.78-0.04,4.16,0c0.75,0.02,1.26,0.6,1.26,1.29c0,0.73-0.53,1.27-1.34,1.3C65.52,59.01,64.82,58.99,64.13,58.98z"/>
	<path d="M45.9,64.43c-0.7,0-1.39,0.03-2.09-0.01c-0.78-0.04-1.29-0.55-1.28-1.26c0.01-0.75,0.42-1.26,1.15-1.29
		c1.48-0.06,2.96-0.06,4.44,0.01c0.74,0.03,1.14,0.58,1.1,1.32c-0.04,0.74-0.47,1.18-1.23,1.21C47.3,64.45,46.6,64.43,45.9,64.43
		C45.9,64.43,45.9,64.43,45.9,64.43z"/>
	<path d="M72.99,58.98c-0.4,0-0.81,0.02-1.21,0c-0.76-0.05-1.28-0.55-1.31-1.24c-0.03-0.67,0.49-1.3,1.21-1.34
		c0.92-0.05,1.85-0.06,2.77,0.01c0.72,0.05,1.14,0.55,1.18,1.27c0.04,0.68-0.51,1.24-1.25,1.3C73.91,59.01,73.45,58.98,72.99,58.98z
		"/>
	<path d="M73.03,42.6c-0.44,0-0.87,0.02-1.31,0c-0.75-0.04-1.2-0.49-1.25-1.21c-0.05-0.73,0.37-1.28,1.09-1.34
		c0.98-0.09,1.98-0.09,2.96,0c0.72,0.07,1.14,0.62,1.08,1.36c-0.06,0.72-0.51,1.16-1.26,1.19C73.91,42.62,73.47,42.6,73.03,42.6z"/>
	<path d="M73.04,50.94c0.44,0,0.87-0.02,1.31,0c0.76,0.04,1.2,0.48,1.25,1.2c0.06,0.73-0.37,1.28-1.08,1.35
		c-0.98,0.09-1.98,0.09-2.95,0c-0.72-0.07-1.14-0.62-1.08-1.35c0.06-0.72,0.5-1.16,1.25-1.2C72.17,50.93,72.61,50.94,73.04,50.94z"
		/>
	<path d="M72.98,48.04c-0.46,0-0.93,0.04-1.39-0.01c-0.71-0.08-1.1-0.56-1.11-1.24c-0.01-0.68,0.36-1.22,1.07-1.27
		c1.01-0.07,2.03-0.07,3.04,0.01c0.7,0.06,1.06,0.62,1.03,1.3c-0.03,0.64-0.4,1.11-1.07,1.19C74.03,48.08,73.5,48.03,72.98,48.04
		C72.98,48.03,72.98,48.04,72.98,48.04z"/>
	<path d="M73.03,64.42c-0.46,0-0.93,0.03-1.39-0.01c-0.72-0.06-1.11-0.52-1.16-1.19c-0.05-0.64,0.28-1.22,0.93-1.28
		c1.09-0.1,2.2-0.1,3.29,0.01c0.64,0.06,0.96,0.65,0.91,1.29c-0.05,0.63-0.42,1.09-1.09,1.16c-0.49,0.05-0.98,0.01-1.48,0.01
		C73.03,64.42,73.03,64.42,73.03,64.42z"/>
</g>
</svg>
