<?xml version="1.0" encoding="utf-8"?>
<!-- Generator: Adobe Illustrator 23.0.3, SVG Export Plug-In . SVG Version: 6.00 Build 0)  -->
<svg version="1.1" id="Layer_1" xmlns="http://www.w3.org/2000/svg" xmlns:xlink="http://www.w3.org/1999/xlink" x="0px" y="0px"
	 viewBox="0 0 100 100" style="enable-background:new 0 0 100 100;" xml:space="preserve">
<g>
	<path d="M87.57,92c-7.19,0-14.39,0-21.58,0c-2.63-1.11-3.24-2.04-3.24-4.96c0-2.33,0-4.67,0-7c0-0.28-0.02-0.57-0.04-0.9
		c-0.43,0-0.78,0-1.13,0c-15.99,0-31.98,0-47.97,0c-0.51,0-1.03,0.01-1.52-0.11c-1.79-0.43-2.76-1.86-2.76-4.01
		c0-20.31,0.02-40.62-0.02-60.93c0-2.22,0.73-3.79,2.88-4.54c21.31,0,42.63,0,63.94,0c2.17,0.74,2.92,2.3,2.9,4.53
		c-0.05,9.53-0.02,19.06-0.02,28.59c0,0.31,0,0.61,0,0.98c2.57,0,5.01-0.01,7.45,0c2.62,0.02,4.26,1.66,4.28,4.28
		c0.01,1.72,0,3.44,0,5.15c0,11.49,0,22.98,0.01,34.47c0,1.35-0.32,2.58-1.4,3.45C88.83,91.41,88.17,91.67,87.57,92z M11.79,35.57
		c21.63,0,43.17,0,64.74,0c0-4.99,0-9.93,0-14.88c-21.61,0-43.15,0-64.74,0C11.79,25.66,11.79,30.58,11.79,35.57z M62.72,56.91
		c-0.36,0-0.64,0-0.93,0c-4.56,0-9.13,0-13.69,0c-1.43,0-1.77-0.33-1.77-1.73c0-4.32,0-8.64,0-12.96c0-1.41,0.34-1.75,1.76-1.75
		c5.77,0,11.54,0,17.31,0c2.32,0,2.4,0.05,2.39,2.39c0,0.68,0.24,0.8,0.84,0.79c2.39-0.03,4.78-0.01,7.17-0.01
		c0.25,0,0.51-0.03,0.75-0.05c0-1.89,0-3.67,0-5.49c-21.61,0-43.17,0-64.75,0c0,7.1,0,14.14,0,21.19c17,0,33.94,0,50.92,0
		C62.72,58.49,62.72,57.77,62.72,56.91z M62.69,76.72c0-5.04,0-9.96,0-14.89c-17,0-33.94,0-50.94,0c0,0.36,0,0.65,0,0.94
		c0,4.02,0,8.05,0,12.07c0,1.59,0.29,1.88,1.87,1.88c16.05,0,32.09,0,48.14,0C62.05,76.72,62.34,76.72,62.69,76.72z M76.59,18.21
		c0-1.53,0-2.98,0-4.42c0-1.51-0.32-1.83-1.85-1.83c-20.18,0-40.35,0-60.53,0c-2.39,0-2.47,0.08-2.47,2.49c0,1.25,0,2.5,0,3.76
		C33.41,18.21,54.95,18.21,76.59,18.21z M88.29,57.74c-0.34,0-0.63,0-0.92,0c-3.92,0-7.84,0-11.75,0c-0.29,0-0.67,0.09-0.87-0.05
		c-0.38-0.27-0.88-0.66-0.92-1.03c-0.04-0.38,0.37-0.88,0.71-1.18c0.21-0.19,0.66-0.14,1.01-0.14c3.92-0.01,7.84-0.01,11.75-0.01
		c0.31,0,0.63,0,0.92,0c0.05-0.17,0.1-0.24,0.1-0.31c0.01-2.44,0.03-4.88,0-7.32c-0.02-1.07-0.66-1.63-1.79-1.63
		c-6.52-0.01-13.04-0.01-19.56,0c-1.25,0-1.8,0.58-1.81,1.84c-0.01,1.88,0,3.76,0,5.63c0,0.58,0,1.16,0,1.79c0.46,0,0.8,0,1.15,0
		c0.99,0,1.99-0.02,2.98,0.01c0.77,0.03,1.23,0.52,1.23,1.21c0,0.7-0.46,1.14-1.25,1.18c-0.4,0.02-0.8,0.01-1.21,0.01
		c-0.95,0-1.9,0-2.84,0c0,4.23,0,8.32,0,12.42c7.72,0,15.38,0,23.07,0C88.29,66.03,88.29,61.96,88.29,57.74z M62.74,54.45
		c0-0.33,0-0.62,0-0.91c0-1.99-0.01-3.97,0.01-5.96c0.01-1.52,0.72-2.69,2.04-3.42c0.56-0.31,0.72-0.65,0.54-1.24
		c-5.5,0-11.01,0-16.52,0c0,3.87,0,7.69,0,11.52C53.46,54.45,58.06,54.45,62.74,54.45z M65.21,72.68c0,3.08,0,6.12,0,9.18
		c7.71,0,15.37,0,23.06,0c0-3.09,0-6.12,0-9.18C80.56,72.68,72.9,72.68,65.21,72.68z M65.16,84.36c0,1.11,0,2.15,0,3.19
		c0,1.5,0.53,2.03,2.03,2.03c4.21,0,8.42,0,12.63,0c2.23,0,4.45,0,6.68,0c0.93,0,1.64-0.38,1.7-1.14c0.11-1.34,0.03-2.7,0.03-4.08
		C80.56,84.36,72.93,84.36,65.16,84.36z"/>
	<path d="M65.34,31.21c0-2.09,0-4.08,0-6.13c-14.13,0-28.21,0-42.34,0c0,2.04,0,4.03,0,6.13c0.32,0,0.61,0,0.9,0
		c3.11,0,6.23,0,9.34,0c0.24,0,0.48-0.01,0.72,0.01c0.71,0.06,1.19,0.53,1.2,1.16c0.01,0.66-0.49,1.16-1.24,1.22
		c-0.16,0.01-0.32,0.01-0.48,0.01c-3.73,0-7.46,0-11.19,0c-1.39,0-1.72-0.32-1.72-1.69c0-2.58-0.01-5.15,0-7.73
		c0-1.15,0.4-1.55,1.55-1.55c14.71,0,29.42,0,44.13,0c1.19,0,1.58,0.4,1.59,1.61c0.01,2.6,0.01,5.21,0,7.81
		c0,1.18-0.37,1.56-1.53,1.56c-8.8,0.01-17.61,0-26.41,0c-0.97,0-1.49-0.44-1.48-1.2c0-0.76,0.52-1.19,1.49-1.19
		c8.13,0,16.27,0,24.4,0C64.61,31.21,64.95,31.21,65.34,31.21z"/>
	<path d="M31.29,40.46c3.03,0,6.07,0,9.1,0c1.24,0,1.62,0.38,1.62,1.64c0,4.4,0,8.8,0,13.2c0,1.22-0.37,1.6-1.57,1.6
		c-6.12,0-12.24,0-18.36,0c-1.15,0-1.54-0.39-1.54-1.55c0-4.46,0-8.91,0-13.37c0-1.14,0.41-1.53,1.57-1.53
		C25.17,40.46,28.23,40.46,31.29,40.46z M23.01,42.9c0,3.89,0,7.71,0,11.54c5.54,0,11.03,0,16.53,0c0-3.87,0-7.69,0-11.54
		C34.01,42.9,28.54,42.9,23.01,42.9z"/>
	<path d="M39.96,70.45c-5.87,0-11.75,0-17.62,0c-0.32,0-0.73,0.09-0.94-0.07c-0.35-0.26-0.7-0.66-0.81-1.06
		c-0.15-0.54,0.2-1,0.75-1.16c0.32-0.1,0.69-0.11,1.03-0.11c11.72-0.01,23.44,0,35.16,0c0.13,0,0.27,0,0.4,0
		c0.86,0.04,1.41,0.52,1.4,1.23c-0.01,0.72-0.54,1.18-1.43,1.18c-4.94,0.01-9.87,0-14.81,0C42.05,70.45,41,70.45,39.96,70.45z"/>
	<path d="M46.07,66.14c-3.81,0-7.62,0-11.43-0.01c-0.37,0-0.85,0.03-1.08-0.18c-0.31-0.29-0.6-0.8-0.57-1.19
		c0.03-0.34,0.46-0.72,0.8-0.95c0.23-0.15,0.62-0.09,0.94-0.09c7.59,0,15.18,0,22.77,0c0.19,0,0.38-0.01,0.56,0.01
		c0.76,0.07,1.25,0.55,1.25,1.21c-0.01,0.66-0.5,1.17-1.27,1.18c-2.28,0.03-4.56,0.01-6.84,0.02C49.5,66.14,47.79,66.14,46.07,66.14
		z"/>
	<path d="M32.89,72.36c3.46,0,6.92,0,10.38,0c0.27,0,0.55-0.03,0.8,0.03c0.65,0.15,1.03,0.57,0.99,1.26
		c-0.04,0.65-0.44,1.01-1.07,1.1c-0.18,0.03-0.37,0.01-0.56,0.01c-7.08,0-14.16,0-21.24,0c-0.13,0-0.27,0-0.4,0
		c-0.76-0.05-1.23-0.52-1.23-1.2c0-0.68,0.48-1.15,1.24-1.2c0.24-0.02,0.48-0.01,0.72-0.01C25.97,72.36,29.43,72.36,32.89,72.36z"/>
	<path d="M53.83,74.77c-1.37,0-2.73,0.01-4.1,0c-0.87-0.01-1.41-0.48-1.42-1.19c0-0.71,0.55-1.21,1.41-1.22
		c2.73-0.01,5.46-0.01,8.19,0c0.86,0,1.42,0.49,1.42,1.2c0,0.72-0.54,1.2-1.41,1.2C56.56,74.78,55.19,74.77,53.83,74.77z"/>
	<path d="M25.16,66.14c-1.07,0-2.14,0.02-3.21,0c-0.92-0.02-1.4-0.44-1.4-1.19c0-0.75,0.48-1.2,1.39-1.21
		c2.14-0.02,4.28-0.02,6.43,0c0.87,0.01,1.4,0.52,1.37,1.24c-0.02,0.68-0.53,1.14-1.37,1.16C27.3,66.15,26.23,66.14,25.16,66.14z"/>
	<path d="M76.76,47.06c2.84,0,5.69,0,8.53,0c1.14,0,1.54,0.4,1.55,1.55c0.01,1.4,0.01,2.79,0,4.19c-0.01,1.09-0.44,1.51-1.53,1.51
		c-5.72,0.01-11.43,0-17.15,0c-1.13,0-1.54-0.42-1.54-1.56c-0.01-1.42-0.01-2.85,0-4.27c0.01-0.98,0.44-1.41,1.44-1.42
		C70.96,47.05,73.86,47.06,76.76,47.06z M69.08,51.84c5.14,0,10.22,0,15.31,0c0-0.8,0-1.54,0-2.32c-5.12,0-10.2,0-15.31,0
		C69.08,50.3,69.08,51.05,69.08,51.84z"/>
	<path d="M82.06,68.2c-1.13,0-2.25,0.01-3.38,0c-0.94-0.01-1.38-0.43-1.39-1.39c-0.02-1.9-0.02-3.8,0-5.71
		c0.01-0.93,0.45-1.36,1.41-1.37c2.25-0.02,4.5-0.02,6.75,0c0.96,0.01,1.37,0.42,1.38,1.39c0.02,1.9,0.02,3.8,0,5.71
		c-0.01,0.96-0.44,1.35-1.4,1.36C84.31,68.21,83.19,68.2,82.06,68.2z M84.37,65.74c0-1.2,0-2.36,0-3.53c-1.57,0-3.08,0-4.62,0
		c0,1.2,0,2.34,0,3.53C81.32,65.74,82.83,65.74,84.37,65.74z"/>
	<path d="M71.4,68.2c-1.1,0-2.2,0.01-3.29,0c-1.06-0.01-1.47-0.41-1.48-1.44c-0.01-1.87-0.01-3.75,0-5.63
		c0.01-0.94,0.43-1.38,1.37-1.39c2.25-0.02,4.5-0.02,6.75,0c0.96,0.01,1.38,0.43,1.39,1.37c0.01,1.9,0.01,3.8,0,5.71
		c-0.01,0.96-0.42,1.37-1.37,1.39C73.65,68.22,72.53,68.2,71.4,68.2z M73.69,62.22c-1.59,0-3.1,0-4.61,0c0,1.21,0,2.35,0,3.52
		c1.55,0,3.06,0,4.61,0C73.69,64.55,73.69,63.41,73.69,62.22z"/>
	<path d="M76.69,80.42c-2.84,0-5.69,0-8.53,0c-0.97,0-1.5-0.41-1.52-1.16c-0.02-0.78,0.53-1.25,1.53-1.26
		c5.71-0.01,11.43-0.01,17.14,0c0.98,0,1.55,0.49,1.52,1.26c-0.03,0.75-0.54,1.15-1.53,1.15C82.43,80.43,79.56,80.42,76.69,80.42z"
		/>
	<path d="M81.13,74.1c1.42,0,2.84-0.01,4.26,0c0.9,0.01,1.41,0.44,1.43,1.17c0.02,0.75-0.53,1.24-1.46,1.24
		c-2.84,0.01-5.69,0.01-8.53,0c-0.92,0-1.49-0.5-1.48-1.23c0.01-0.73,0.57-1.18,1.51-1.18C78.29,74.1,79.71,74.1,81.13,74.1z"/>
	<path d="M69.45,74.11c0.56,0,1.13-0.02,1.69,0.01c0.68,0.04,1.09,0.42,1.14,1.11c0.05,0.66-0.38,1.23-1.07,1.26
		c-1.15,0.06-2.31,0.05-3.46,0c-0.69-0.03-1.14-0.59-1.12-1.24c0.02-0.64,0.5-1.11,1.21-1.14C68.38,74.09,68.91,74.11,69.45,74.11z"
		/>
</g>
</svg>
