<?xml version="1.0" encoding="utf-8"?>
<!-- Generator: Adobe Illustrator 23.0.3, SVG Export Plug-In . SVG Version: 6.00 Build 0)  -->
<svg version="1.1" id="Layer_1" xmlns="http://www.w3.org/2000/svg" xmlns:xlink="http://www.w3.org/1999/xlink" x="0px" y="0px"
	 viewBox="0 0 100 100" style="enable-background:new 0 0 100 100;" xml:space="preserve">
<g>
	<path d="M7.75,62.16c0.32-0.59,0.69-1.1,1.47-1.01c0.69,0.08,1.09,0.58,1.1,1.45c0.01,2.58,0,5.17,0.01,7.75
		c0,1.55,0.39,1.94,1.94,1.94c14.57,0,29.14,0,43.71,0c0.28,0,0.55,0,0.95,0c0-0.39,0-0.71,0-1.04c0-6.48,0-12.97,0-19.45
		c0-1.44,0.34-1.78,1.78-1.79c2.02,0,4.04,0,6.06,0c0.99,0,1.57,0.48,1.56,1.25c-0.01,0.76-0.6,1.25-1.58,1.26
		c-1.73,0.01-3.47,0-5.25,0c0,13.01,0,25.93,0,38.9c10.63,0,21.23,0,31.88,0c0-9.78,0-19.54,0-29.44c-0.32,0-0.64,0-0.96,0
		c-1.88,0-3.76,0-5.64,0c-1.2,0-1.62-0.42-1.62-1.62c-0.01-2.27,0-4.55,0-6.82c0-0.3,0-0.61,0-1.02c-0.38,0-0.68,0-0.98,0
		c-3.51,0-7.02,0-10.53,0c-0.22,0-0.45,0.01-0.67-0.01c-0.78-0.06-1.32-0.57-1.32-1.26c-0.01-0.73,0.54-1.24,1.39-1.25
		c2.78-0.01,5.56,0,8.34-0.01c0.5,0,1.01,0,1.58,0c0-10.08,0-20.11,0-30.21c-23.48,0-46.99,0-70.63,0c0,0.35,0,0.7,0,1.05
		c0,11.65,0,23.3,0,34.95c0,0.28,0,0.56,0,0.84c0,0.64-0.32,1.09-0.92,1.25c-0.65,0.18-1.15-0.1-1.47-0.69
		c-0.05-0.09-0.12-0.18-0.18-0.27c0-15.22,0-30.43,0-45.65c0.37-1.81,1.42-3,3.2-3.54c23.19,0,46.38,0,69.57,0
		c2.33,0.87,3.06,2.59,3.05,5c-0.06,12.06-0.03,24.13-0.03,36.19c0,0.35,0,0.7,0,1.14c1.19-0.29,1.81,0.29,2.42,1.03
		c0.92,1.13,1.92,2.19,2.87,3.3c1.73,2.02,3.45,4.05,5.17,6.07c0,11.17,0,22.35,0,33.52c-12.07,0-24.15,0-36.22,0
		c-0.7-0.38-0.88-0.98-0.87-1.76c0.02-5.47,0.01-10.94,0.01-16.41c0-0.32,0-0.65,0-1.02c-0.49,0-0.86,0-1.22,0
		c-14.59,0-29.18,0-43.77,0c-2.12,0-3.5-1.06-4.03-3.09c-0.03-0.1-0.1-0.19-0.15-0.29C7.75,68.34,7.75,65.25,7.75,62.16z
		 M81.02,17.16c0-1.64,0-3.2,0-4.77c0-1.77-0.34-2.11-2.11-2.11c-22.17,0-44.35,0-66.52,0c-0.25,0-0.51-0.01-0.76,0.01
		c-0.7,0.07-1.23,0.46-1.25,1.14c-0.06,1.9-0.02,3.8-0.02,5.73C33.92,17.16,57.41,17.16,81.02,17.16z M89.85,59.42
		c-1.4-1.6-2.7-3.09-4.13-4.72c0,1.7,0,3.19,0,4.72C87.06,59.42,88.36,59.42,89.85,59.42z"/>
	<path d="M44.95,34.71c-4.83,0-9.65,0-14.48,0c-0.25,0-0.51,0.02-0.76-0.01c-0.67-0.1-1.06-0.48-1.11-1.17
		c-0.04-0.69,0.33-1.12,0.97-1.29c0.26-0.07,0.56-0.04,0.84-0.04c9.68,0,19.37,0,29.05,0c0.28,0,0.57-0.02,0.84,0.04
		c0.65,0.16,1.03,0.6,1,1.27c-0.03,0.67-0.43,1.08-1.1,1.18c-0.25,0.04-0.5,0.02-0.76,0.02C54.61,34.71,49.78,34.71,44.95,34.71z"/>
	<path d="M53.65,26.88c4.38,0,8.75,0,13.13,0c0.31,0,0.62,0,0.92,0.04c0.63,0.1,1,0.5,1.04,1.14c0.04,0.68-0.3,1.13-0.96,1.28
		c-0.3,0.07-0.61,0.06-0.92,0.06c-8.81,0-17.62,0-26.43,0c-0.28,0-0.56,0-0.84-0.05c-0.67-0.12-1.04-0.54-1.04-1.22
		c0-0.68,0.37-1.1,1.04-1.21c0.3-0.05,0.61-0.04,0.92-0.04C44.89,26.88,49.27,26.88,53.65,26.88z"/>
	<path d="M77.05,73.11c-1.23,0-2.32,0-3.41,0c-0.13,0-0.27,0.03-0.48,0.06c0,1.06,0.01,2.1,0,3.13c-0.01,1.04-0.43,1.56-1.23,1.56
		c-0.81,0.01-1.28-0.52-1.28-1.53c-0.01-2.89-0.01-5.78,0-8.67c0-0.98,0.51-1.55,1.29-1.54c0.78,0.01,1.22,0.57,1.23,1.58
		c0.01,0.92,0,1.84,0,2.82c1.32,0,2.56,0,3.89,0c0-1.04-0.03-2.05,0.01-3.05c0.04-0.99,0.78-1.55,1.63-1.29
		c0.58,0.18,0.87,0.61,0.87,1.2c0.01,3.06,0.02,6.12,0,9.18c-0.01,0.83-0.5,1.3-1.23,1.3c-0.73,0-1.23-0.47-1.26-1.29
		C77.02,75.45,77.05,74.33,77.05,73.11z"/>
	<path d="M64.39,73.9c0,0.88,0.01,1.69,0,2.49c-0.02,0.97-0.45,1.47-1.23,1.47c-0.78,0.01-1.27-0.51-1.28-1.45
		c-0.02-2.94-0.02-5.89,0-8.83c0.01-0.91,0.45-1.43,1.29-1.46c1.06-0.04,2.14-0.06,3.19,0.07c1.97,0.24,3.35,1.96,3.27,3.94
		c-0.08,1.97-1.59,3.54-3.57,3.69C65.53,73.86,65.01,73.87,64.39,73.9z M64.45,71.3c0.89-0.01,1.85,0.31,2.38-0.61
		c0.22-0.37,0.21-1.09-0.01-1.45c-0.55-0.89-1.49-0.61-2.38-0.58C64.45,69.57,64.45,70.39,64.45,71.3z"/>
	<path d="M83.72,73.83c0,0.95,0.01,1.76,0,2.57c-0.01,0.92-0.49,1.46-1.26,1.47c-0.77,0-1.26-0.54-1.26-1.46
		c-0.01-2.92-0.01-5.84,0-8.75c0-1.07,0.46-1.54,1.54-1.55c0.95-0.01,1.91-0.04,2.86,0.08c2.05,0.25,3.45,1.99,3.35,4.05
		c-0.1,1.92-1.68,3.48-3.68,3.6C84.78,73.85,84.28,73.83,83.72,73.83z M83.77,71.3c0.91-0.01,1.91,0.31,2.44-0.68
		c0.19-0.36,0.16-1.04-0.06-1.38c-0.56-0.89-1.51-0.58-2.37-0.61C83.77,69.57,83.77,70.4,83.77,71.3z"/>
	<path d="M38.99,55.97c-2.83,0-5.67,0-8.5,0c-0.28,0-0.57,0.01-0.84-0.03c-0.63-0.1-1-0.49-1.04-1.14
		c-0.04-0.64,0.26-1.08,0.88-1.27c0.24-0.07,0.5-0.09,0.75-0.09c5.81,0,11.62,0,17.43,0c0.17,0,0.34-0.01,0.5,0.02
		c0.73,0.1,1.21,0.63,1.18,1.3c-0.02,0.66-0.52,1.18-1.27,1.2c-1.23,0.03-2.47,0.02-3.7,0.02C42.58,55.97,40.78,55.97,38.99,55.97z"
		/>
	<path d="M66.38,47.91c-0.78,0-1.29-0.4-1.38-1.07c-0.09-0.74,0.31-1.25,1.11-1.41c1.75-0.35,1.85-0.54,1.93-2.34
		c0.04-0.92,0.36-1.84,0.54-2.75c0.03-0.17,0.09-0.4,0.01-0.52c-0.65-0.98-0.57-2.08-0.57-3.18c0-1.28-0.42-1.75-1.71-1.92
		c-0.93-0.13-1.39-0.61-1.31-1.4c0.07-0.75,0.69-1.18,1.6-1.11c2.34,0.17,3.93,1.86,3.95,4.2c0,0.42-0.09,0.87,0.03,1.26
		c0.14,0.43,0.46,0.81,0.71,1.2c0.27,0.41,0.79,0.82,0.79,1.22c-0.01,0.4-0.54,0.79-0.82,1.2c-0.25,0.37-0.57,0.73-0.68,1.14
		c-0.12,0.45-0.02,0.95-0.03,1.42C70.5,46.16,68.71,47.91,66.38,47.91z"/>
	<path d="M23.13,42.61c-2.31-0.1-3.98-1.8-4.02-4.13c-0.01-0.39-0.01-0.79,0-1.18c0.03-0.65-0.22-1.07-0.81-1.43
		c-0.36-0.22-0.72-0.75-0.74-1.16c-0.01-0.37,0.36-0.9,0.71-1.09c0.65-0.35,0.88-0.81,0.85-1.49c-0.02-0.39-0.01-0.79,0-1.18
		c0.05-2.33,1.82-4.06,4.15-4.06c0.79,0,1.29,0.39,1.37,1.07c0.09,0.73-0.32,1.25-1.11,1.42c-1.78,0.37-1.83,0.51-1.92,2.34
		c-0.04,0.92-0.36,1.83-0.55,2.75c-0.03,0.17-0.08,0.4,0,0.52c0.64,0.98,0.58,2.08,0.58,3.18c0,1.29,0.41,1.75,1.7,1.92
		c0.92,0.12,1.39,0.63,1.31,1.41C24.57,42.22,23.99,42.64,23.13,42.61z"/>
	<path d="M35.71,50.68c-1.88,0-3.75,0.01-5.63,0c-0.94-0.01-1.47-0.48-1.48-1.25c-0.01-0.78,0.5-1.26,1.44-1.27
		c2.86-0.01,5.72-0.01,8.57-0.01c0.95,0,1.91-0.01,2.86,0c1,0.01,1.53,0.47,1.52,1.27c-0.01,0.79-0.57,1.24-1.57,1.25
		C39.52,50.68,37.62,50.68,35.71,50.68z"/>
	<path d="M54.38,37.53c1.8,0,3.59-0.01,5.39,0c0.95,0,1.5,0.45,1.54,1.19c0.04,0.77-0.55,1.33-1.5,1.33
		c-3.62,0.01-7.24,0.01-10.86,0c-0.94,0-1.47-0.49-1.48-1.25c-0.01-0.81,0.52-1.26,1.53-1.26C50.78,37.52,52.58,37.53,54.38,37.53z"
		/>
	<path d="M31.84,45.33c-0.67,0-1.35,0.02-2.02-0.01c-0.71-0.03-1.15-0.42-1.22-1.14c-0.07-0.69,0.37-1.31,1.1-1.34
		c1.43-0.06,2.86-0.06,4.28,0c0.72,0.03,1.16,0.66,1.09,1.34c-0.08,0.72-0.51,1.09-1.22,1.14c-0.06,0-0.11,0-0.17,0
		C33.08,45.34,32.46,45.34,31.84,45.33C31.84,45.33,31.84,45.33,31.84,45.33z"/>
	<path d="M31.81,40.04c-0.64,0-1.29,0.03-1.93-0.01c-0.81-0.05-1.28-0.55-1.27-1.28c0.01-0.73,0.48-1.21,1.3-1.22
		c1.29-0.02,2.58-0.02,3.86,0c0.83,0.02,1.3,0.48,1.32,1.21c0.01,0.72-0.46,1.2-1.27,1.29c-0.06,0.01-0.11,0.01-0.17,0.01
		C33.04,40.05,32.42,40.05,31.81,40.04C31.81,40.05,31.81,40.05,31.81,40.04z"/>
	<path d="M41.83,37.53c0.67,0,1.35-0.02,2.02,0.01c0.72,0.03,1.14,0.45,1.18,1.17c0.04,0.72-0.36,1.25-1.06,1.28
		c-1.45,0.07-2.91,0.07-4.36,0c-0.7-0.03-1.09-0.55-1.06-1.28c0.04-0.72,0.46-1.13,1.18-1.17C40.43,37.51,41.13,37.54,41.83,37.53z"
		/>
	<path d="M31.81,29.4c-0.64,0-1.29,0.03-1.93-0.01c-0.82-0.05-1.28-0.54-1.27-1.27c0.01-0.73,0.47-1.21,1.3-1.23
		c1.29-0.03,2.58-0.03,3.86,0c0.84,0.02,1.3,0.49,1.32,1.22c0.01,0.75-0.48,1.24-1.35,1.28C33.1,29.43,32.45,29.4,31.81,29.4
		C31.81,29.4,31.81,29.4,31.81,29.4z"/>
	<path d="M48.7,48.17c0.36,0,0.73-0.03,1.09,0.01c0.68,0.08,1.07,0.48,1.11,1.16c0.04,0.69-0.31,1.19-0.97,1.27
		c-0.83,0.1-1.68,0.1-2.51,0.01c-0.66-0.07-1.03-0.58-0.99-1.26c0.04-0.71,0.45-1.13,1.18-1.18C47.97,48.14,48.34,48.16,48.7,48.17
		C48.7,48.16,48.7,48.16,48.7,48.17z"/>
</g>
</svg>
